<svg xmlns="http://www.w3.org/2000/svg" width="100" height="76" viewBox="0 0 100 76">
  <rect width="100" height="76" fill="#f8f9fa"/>
  <!-- 4 product cards -->
  <rect x="5" y="10" width="20" height="30" rx="2" fill="white" stroke="#dee2e6"/>
  <rect x="8" y="13" width="14" height="12" fill="#e9ecef"/>
  <rect x="8" y="28" width="10" height="3" fill="#6c757d"/>
  <rect x="8" y="33" width="6" height="3" fill="#0d6efd"/>

  <rect x="28" y="10" width="20" height="30" rx="2" fill="white" stroke="#dee2e6"/>
  <rect x="31" y="13" width="14" height="12" fill="#e9ecef"/>
  <rect x="31" y="28" width="10" height="3" fill="#6c757d"/>
  <rect x="31" y="33" width="6" height="3" fill="#0d6efd"/>

  <rect x="51" y="10" width="20" height="30" rx="2" fill="white" stroke="#dee2e6"/>
  <rect x="54" y="13" width="14" height="12" fill="#e9ecef"/>
  <rect x="54" y="28" width="10" height="3" fill="#6c757d"/>
  <rect x="54" y="33" width="6" height="3" fill="#0d6efd"/>

  <rect x="74" y="10" width="20" height="30" rx="2" fill="white" stroke="#dee2e6"/>
  <rect x="77" y="13" width="14" height="12" fill="#e9ecef"/>
  <rect x="77" y="28" width="10" height="3" fill="#6c757d"/>
  <rect x="77" y="33" width="6" height="3" fill="#0d6efd"/>

  <text x="50" y="55" font-size="6" fill="#6c757d" text-anchor="middle">Products (Grouped)</text>
</svg>
